<?xml version="1.0" standalone="no"?>
<!DOCTYPE svg PUBLIC "-//W3C//DTD SVG 20010904//EN"
 "http://www.w3.org/TR/2001/REC-SVG-20010904/DTD/svg10.dtd">
<svg version="1.0" xmlns="http://www.w3.org/2000/svg"
 width="300.000000pt" height="300.000000pt" viewBox="0 0 300.000000 300.000000"
 preserveAspectRatio="xMidYMid meet">
<metadata>
Created by potrace 1.10, written by Peter Selinger 2001-2011
</metadata>
<g transform="translate(0.000000,300.000000) scale(0.100000,-0.100000)"
fill="#000000" stroke="none">
<path d="M1235 2695 c-192 -27 -329 -73 -465 -157 -101 -62 -229 -186 -289
-279 -34 -54 -49 -68 -80 -77 -21 -7 -64 -29 -97 -50 -160 -105 -233 -261
-234 -503 0 -156 35 -257 123 -355 l45 -50 -10 -180 c-17 -298 -1 -675 38
-936 14 -91 19 -108 34 -108 13 0 17 7 16 25 0 14 -4 25 -8 25 -3 0 -8 26 -11
58 -3 31 -7 73 -10 92 -3 19 -9 71 -13 115 -4 44 -9 96 -11 115 -3 40 -2 616
2 671 2 20 8 46 15 59 10 19 8 25 -10 45 -12 13 -19 28 -16 34 3 5 -16 35 -44
67 -27 31 -50 63 -50 71 0 7 -4 13 -10 13 -5 0 -10 9 -10 20 0 11 -4 20 -8 20
-4 0 -9 8 -10 18 -3 25 -8 44 -18 67 -9 22 -10 181 -1 230 3 17 8 46 12 65 3
19 10 39 16 45 5 5 9 17 9 27 0 10 4 18 9 18 5 0 11 13 14 29 7 32 130 171
152 171 8 0 15 3 17 8 5 11 67 42 84 42 9 0 12 5 9 10 -3 6 0 10 8 10 8 0 22
9 32 20 10 11 27 20 38 20 12 0 17 5 14 14 -15 37 150 210 268 282 61 36 145
77 163 77 6 0 12 4 12 8 0 4 12 10 28 14 15 5 32 9 37 11 6 2 26 6 45 10 19 3
42 9 50 14 14 7 45 12 150 26 134 17 491 -1 510 -26 3 -3 33 -16 67 -29 65
-24 137 -68 192 -116 31 -28 121 -147 121 -159 0 -4 10 -23 23 -44 13 -20 32
-64 42 -97 11 -33 23 -64 27 -69 4 -6 8 -23 8 -39 0 -15 4 -36 9 -46 6 -10 12
-31 15 -47 2 -16 5 -29 6 -29 2 0 9 -33 14 -70 10 -79 38 -114 95 -121 85 -10
128 -17 143 -25 9 -5 27 -9 40 -9 13 0 28 -4 34 -9 5 -4 33 -17 62 -27 29 -10
65 -31 81 -46 29 -29 61 -103 61 -142 0 -12 6 -33 14 -47 11 -22 20 -70 32
-184 1 -11 5 -65 9 -120 4 -55 11 -104 15 -110 16 -21 17 -723 2 -735 -4 -3
-8 -23 -10 -45 -3 -52 -33 -187 -44 -199 -11 -13 -10 -76 1 -76 5 0 19 25 30
55 56 149 89 527 71 803 -28 421 -84 756 -136 813 -52 57 -299 139 -420 139
l-29 0 -22 113 c-33 168 -68 280 -124 396 -106 217 -285 340 -556 380 -94 14
-304 12 -418 -4z"/>
<path d="M1281 2529 c-172 -29 -400 -140 -521 -255 -22 -20 -48 -34 -70 -37
l-35 -4 38 -1 c33 -2 51 7 123 61 162 122 335 195 511 217 244 31 563 -75 675
-225 66 -88 127 -313 175 -645 27 -190 28 -206 28 -635 0 -242 -3 -568 -7
-725 -3 -157 -3 -260 2 -230 13 90 20 308 24 780 4 437 -2 631 -23 760 -5 36
-12 88 -16 115 -3 28 -7 61 -10 75 -3 14 -7 41 -10 60 -26 156 -97 383 -141
448 -64 95 -209 179 -389 224 -90 22 -270 31 -354 17z"/>
<path d="M1000 2220 c194 -6 250 -11 320 -29 204 -54 325 -159 384 -335 30
-89 20 -352 -18 -478 -44 -146 -156 -237 -352 -287 -217 -55 -595 -45 -834 23
-68 19 -78 14 -13 -8 140 -46 388 -72 587 -62 371 19 560 120 626 333 30 99
47 330 31 422 -36 200 -177 343 -398 403 -68 18 -109 21 -323 23 l-245 2 235
-7z"/>
<path d="M670 2060 c-71 -8 -153 -23 -242 -44 -23 -6 -69 -36 -94 -61 -55 -55
-82 -149 -90 -306 -6 -126 -6 -131 20 -184 60 -121 182 -184 464 -240 117 -22
420 -15 525 14 148 39 226 99 281 211 30 64 31 67 30 210 0 125 -3 151 -21
191 -47 103 -145 169 -290 194 -105 19 -460 28 -583 15z m563 -45 c151 -22
232 -68 277 -156 28 -53 44 -161 37 -249 -20 -251 -174 -362 -527 -377 -341
-15 -674 95 -736 243 -27 65 -11 296 27 383 32 75 82 116 166 135 199 45 527
54 756 21z"/>
<path d="M837 1990 c37 -22 50 -57 37 -102 -13 -44 -51 -68 -125 -78 -35 -4
-111 -20 -169 -34 -58 -14 -117 -26 -132 -26 -35 0 -85 43 -97 83 -8 29 -9 29
-10 7 -1 -41 34 -88 73 -99 42 -11 66 -8 201 24 55 13 124 27 154 31 89 12
129 60 123 152 -2 21 -52 62 -77 62 -5 0 5 -9 22 -20z"/>
<path d="M1390 1948 c0 -2 7 -21 15 -43 34 -95 12 -168 -75 -249 -153 -143
-496 -202 -820 -141 -114 22 -164 47 -196 98 -24 39 -25 40 -19 12 16 -74 92
-112 278 -140 144 -22 337 -16 467 14 299 68 458 238 380 409 -10 23 -21 42
-25 42 -3 0 -5 -1 -5 -2z"/>
<path d="M2403 1608 c-32 -15 -46 -59 -38 -117 8 -61 9 -870 1 -1228 -3 -145
-2 -263 2 -263 14 0 23 447 22 1035 -2 610 -8 565 79 565 59 0 153 -23 185
-44 66 -43 83 -138 96 -540 18 -545 -12 -840 -101 -973 -18 -28 -24 -43 -15
-43 20 0 83 137 101 220 27 124 35 250 35 555 0 295 -13 602 -28 665 -24 98
-70 145 -164 168 -57 15 -145 14 -175 0z"/>
<path d="M304 1172 c3 -5 23 -17 45 -27 l41 -18 -7 -246 c-6 -237 1 -371 27
-536 15 -93 19 -132 26 -242 4 -57 11 -103 17 -103 11 0 2 151 -19 295 -38
271 -45 411 -30 626 8 112 14 204 13 204 -1 0 -28 13 -60 28 -32 15 -56 24
-53 19z"/>
</g>
</svg>
